<?xml version="1.0" encoding="utf-8"?>
<svg fill="#000000" viewBox="0 0 24 24" width="48px" height="48px" xmlns="http://www.w3.org/2000/svg">
  <path d="M 35.71 1.635 C 30.187 1.635 25.71 6.112 25.71 11.635 C 25.71 15.872 28.346 19.49 32.066 20.947 C 31.979 20.156 31.899 18.942 32.101 18.079 C 32.283 17.299 33.273 13.108 33.273 13.108 C 33.273 13.108 32.974 12.509 32.974 11.624 C 32.974 10.233 33.78 9.196 34.783 9.196 C 35.636 9.196 36.048 9.837 36.048 10.604 C 36.048 11.462 35.502 12.745 35.22 13.933 C 34.984 14.929 35.719 15.74 36.701 15.74 C 38.478 15.74 39.844 13.866 39.844 11.161 C 39.844 8.767 38.124 7.093 35.667 7.093 C 32.822 7.093 31.152 9.227 31.152 11.433 C 31.152 12.292 31.483 13.214 31.896 13.715 C 31.978 13.814 31.989 13.901 31.965 14.002 C 31.889 14.318 31.721 14.997 31.688 15.136 C 31.645 15.319 31.543 15.358 31.354 15.269 C 30.105 14.687 29.324 12.861 29.324 11.395 C 29.324 8.241 31.616 5.343 35.932 5.343 C 39.401 5.343 42.097 7.815 42.097 11.119 C 42.097 14.566 39.924 17.339 36.908 17.339 C 35.895 17.339 34.942 16.812 34.616 16.191 C 34.616 16.191 34.114 18.1 33.993 18.569 C 33.767 19.437 33.158 20.527 32.75 21.191 C 33.685 21.478 34.679 21.635 35.71 21.635 C 41.232 21.635 45.71 17.157 45.71 11.635 C 45.71 6.113 41.233 1.635 35.71 1.635 Z" style="fill: rgb(255, 255, 255);"/>
</svg>